<svg width="50" height="50" viewBox="0 0 50 50" fill="none" xmlns="http://www.w3.org/2000/svg">
<path d="M41.6667 32.2917C39.0625 32.2917 36.5625 31.875 34.2292 31.1042C33.5 30.875 32.6875 31.0417 32.1042 31.6042L27.5208 36.1875C21.625 33.1875 16.7917 28.375 13.7917 22.4792L18.375 17.875C18.9583 17.3125 19.125 16.5 18.8958 15.7708C18.125 13.4375 17.7083 10.9375 17.7083 8.33333C17.7083 7.1875 16.7708 6.25 15.625 6.25H8.33333C7.1875 6.25 6.25 7.1875 6.25 8.33333C6.25 27.8958 22.1042 43.75 41.6667 43.75C42.8125 43.75 43.75 42.8125 43.75 41.6667V34.375C43.75 33.2292 42.8125 32.2917 41.6667 32.2917ZM25 6.25V27.0833L31.25 20.8333H43.75V6.25H25Z" fill="#001432"/>
</svg>
